<?xml version="1.0" encoding="UTF-8" standalone="no"?>
<!-- Created with Inkscape (http://www.inkscape.org/) -->

<svg
   xmlns:dc="http://purl.org/dc/elements/1.1/"
   xmlns:cc="http://creativecommons.org/ns#"
   xmlns:rdf="http://www.w3.org/1999/02/22-rdf-syntax-ns#"
   xmlns:svg="http://www.w3.org/2000/svg"
   xmlns="http://www.w3.org/2000/svg"
   xmlns:sodipodi="http://sodipodi.sourceforge.net/DTD/sodipodi-0.dtd"
   xmlns:inkscape="http://www.inkscape.org/namespaces/inkscape"
   width="194.0748"
   height="23"
   viewBox="0 0 51.348956 6.0854166"
   version="1.1"
   id="svg8"
   sodipodi:docname="gazin.svg"
   inkscape:version="0.92.5 (2060ec1f9f, 2020-04-08)"
   inkscape:export-filename="/home/yokota/Downloads/gazin.svg.png"
   inkscape:export-xdpi="96"
   inkscape:export-ydpi="96">
  <defs
     id="defs2">
    <clipPath
       id="clip1">
      <path
         id="path89"
         d="M 1.828125,0 H 243 V 62 H 1.828125 Z m 0,0"
         inkscape:connector-curvature="0" />
    </clipPath>
    <clipPath
       id="clip2">
      <path
         id="path92"
         d="m 624,9 h 38.19922 V 54 H 624 Z m 0,0"
         inkscape:connector-curvature="0" />
    </clipPath>
  </defs>
  <sodipodi:namedview
     id="base"
     pagecolor="#ffffff"
     bordercolor="#666666"
     borderopacity="1.0"
     inkscape:pageopacity="0.0"
     inkscape:pageshadow="2"
     inkscape:zoom="3.4333333"
     inkscape:cx="138.73787"
     inkscape:cy="-13.909367"
     inkscape:document-units="mm"
     inkscape:current-layer="surface1"
     showgrid="false"
     inkscape:window-width="2560"
     inkscape:window-height="999"
     inkscape:window-x="0"
     inkscape:window-y="1080"
     inkscape:window-maximized="1"
     fit-margin-top="0"
     fit-margin-left="0"
     fit-margin-right="0"
     fit-margin-bottom="0"
     units="px" />
  <metadata
     id="metadata5">
    <rdf:RDF>
      <cc:Work
         rdf:about="">
        <dc:format>image/svg+xml</dc:format>
        <dc:type
           rdf:resource="http://purl.org/dc/dcmitype/StillImage" />
        <dc:title></dc:title>
      </cc:Work>
    </rdf:RDF>
  </metadata>
  <g
     inkscape:label="Layer 1"
     inkscape:groupmode="layer"
     id="layer1"
     transform="translate(-14.112303,-91.225992)">
    <g
       id="surface1"
       transform="matrix(0.26458333,0,0,0.26458333,13.585296,76.570557)">
      <g
         id="g160"
         transform="matrix(0.32668642,0,0,0.32668642,1.3411324,52.781468)">
        <g
           id="g4780"
           transform="matrix(0.90000001,0,0,0.90000001,0.19918388,7.8390616)">
          <g
             id="g101"
             clip-path="url(#clip1)"
             style="clip-rule:nonzero;fill:#f9f9f9;fill-opacity:0.91304351">
            <path
               id="path99"
               d="m 68.40625,61.742188 h -42.5625 c 0,0 -1.167969,0.132812 -3.070312,-0.5625 C 16.335938,58.8125 2.183594,51.917969 1.996094,36.953125 1.972656,34.90625 1.570312,22.128906 19.574219,12.269531 c 1.914062,-1.046875 13.09375,-6.804687 28.46875,-9.25 1.570312,-0.25 9.367187,-1.5625 25.730469,-2.449219 H 242.67969 l -5.82032,10.132813 H 67.828125 c 0,0 -4.566406,0.03906 -6.972656,0.398437 -2.410157,0.359376 -10.789063,1.054688 -18.707031,5.839844 -2.078126,1.253906 -9.773438,6.035156 -14.125,13.332032 0,0 -3.167969,4.785156 -1.933594,10.53125 0.6875,3.191406 2.703125,7.039062 10.328125,9.003906 1.085937,0.28125 6.175781,0.773437 6.773437,0.71875 0.589844,-0.05469 8.5,0.105468 8.5,0.105468 l 11.023438,-18.714843 -9.875,0.07422 5.917968,-10.109376 h 32.714844 z m 0,0"
               style="fill:#f9f9f9;fill-opacity:0.91304351;fill-rule:evenodd;stroke:none"
               inkscape:connector-curvature="0" />
          </g>
          <path
             id="path103"
             d="m 168.19141,14.980469 h -5.46485 c 0,0 -11.95703,-0.09375 -16.99219,0.257812 -17.96484,1.246094 -37.15624,6.242188 -51.097651,18.355469 -0.984375,0.855469 -5.875,4.628906 -9.964844,12.664062 -0.757813,1.480469 -3.203125,7.621094 0.05078,15.304688 0.351563,0.828125 2.992188,7.738281 14.375,15.714844 l 2.152345,1.113281 6.64453,-12.070313 c 0,0 0.51563,0.449219 0,0 -1.28906,-1.125 -3.67187,-3.523437 -4.49609,-6.457031 -0.25391,-0.898437 -0.73438,-4.226562 1.05078,-7.625 0.39062,-0.742187 0.76172,-1.511719 1.25781,-2.195312 h 20.49219 l -6.75391,11.699219 h 21.75 l 17.90235,-31.003907 h -21.75391 l -4.32813,7.503907 -19.76953,-0.02344 c 0,0 4.25782,-7.796875 20.5586,-10.789062 1.4414,-0.265626 7.30078,-0.957032 12.40625,-0.957032 l 15.33203,0.0039 z m 0,0"
             style="fill:#f9f9f9;fill-opacity:0.91304351;fill-rule:evenodd;stroke:none"
             inkscape:connector-curvature="0" />
          <path
             id="path105"
             d="m 174.52734,14.984375 -6.19922,11.269531 h 25.96875 l -46.76953,35.488282 h 59.85157 l 6.73828,-11.667969 H 188.00391 L 234.375,14.984375 Z m 0,0"
             style="fill:#f9f9f9;fill-opacity:0.91304351;fill-rule:evenodd;stroke:none"
             inkscape:connector-curvature="0" />
          <path
             id="path107"
             d="m 244.9375,14.984375 -26.72266,46.769531 h 26.50782 l 26.82812,-46.769531 z m 0,0"
             style="fill:#f9f9f9;fill-opacity:0.91304351;fill-rule:evenodd;stroke:none"
             inkscape:connector-curvature="0" />
          <path
             id="path109"
             d="M 273.91797,10.675781 H 247.4375 l 5.87109,-10.097656 h 26.52344 z m 0,0"
             style="fill:#f9f9f9;fill-opacity:0.91304351;fill-rule:evenodd;stroke:none"
             inkscape:connector-curvature="0" />
          <path
             id="path111"
             d="m 356.10547,0.578125 -5.84766,10.128906 h -65.30078 l 5.84766,-10.128906 z m 0,0"
             style="fill:#f9f9f9;fill-opacity:0.91304351;fill-rule:evenodd;stroke:none"
             inkscape:connector-curvature="0" />
          <path
             id="path113"
             d="M 282.47656,14.984375 255.5,61.742188 h 23.08594 l 18.00781,-31.191407 6.76562,18.398438 -7.38671,12.792969 h 24.82421 l 27,-46.757813 h -24.82031 l -9.01953,15.605469 -5.16016,-15.605469 z m 0,0"
             style="fill:#f9f9f9;fill-opacity:0.91304351;fill-rule:evenodd;stroke:none"
             inkscape:connector-curvature="0" />
          <path
             id="path115"
             d="m 386.22656,62.066406 h 11.37891 l 28.28906,-51.074218 h 16.39844 L 447.80469,1 h -44.08203 l -5.51563,9.992188 h 16.3125 z m 39.47266,0 h 36.22265 l 6.01954,-10.875 h -24.84375 l 7.96484,-14.390625 h 24.84375 l 6.02344,-10.875 h -24.84766 l 8.50391,-15.304687 h 24.84765 L 495.72656,1 h -36.21484 z m 77.82812,0.835938 c 12.04688,0 26.23047,-7.027344 37.32422,-17.398438 l -7.36328,-5.4375 c -6.96484,6.691406 -15.46094,11.460938 -23.91406,11.460938 -11.375,0 -14.91406,-8.871094 -8.75391,-19.996094 6.29688,-11.375 19.60547,-20.160156 31.23828,-20.160156 7.94532,0 11.03907,3.933594 11.11719,10.289062 l 13.47266,-6.355468 c -0.3086,-9.121094 -6.92578,-15.140626 -18.38672,-15.140626 -17.64844,0 -38.64063,13.132813 -48.73438,31.367188 -9.63672,17.402344 -4.82031,31.371094 14,31.371094 z m 73.32032,-0.835938 h 11.375 L 622.02734,1 h -11.375 L 596.80469,26.011719 H 573.38281 L 587.22656,1 h -11.375 l -33.80469,61.066406 h 11.375 l 13.9375,-25.179687 h 23.42188 z m 0,0"
             style="fill:#d9d9d9;fill-opacity:1;fill-rule:nonzero;stroke:none"
             inkscape:connector-curvature="0" />
          <path
             id="path117"
             d="m 346.22656,33.832031 37.78516,19.464844 V 45.945312 L 354.60547,31.203125 384.01172,16.460938 V 9.109375 l -37.78516,19.464844 z m 0,0"
             style="fill:#f9f9f9;fill-opacity:0.91304351;fill-rule:evenodd;stroke:none"
             inkscape:connector-curvature="0" />
          <g
             id="g121"
             clip-path="url(#clip2)"
             style="clip-rule:nonzero;fill:#f9f9f9;fill-opacity:0.91304351">
            <path
               id="path119"
               d="m 624.28906,9.113281 v 7.351563 l 29.6211,14.742187 -29.6211,14.742188 v 7.351562 L 662.07031,33.914062 V 28.5 Z m 0,0"
               style="fill:#f9f9f9;fill-opacity:0.91304351;fill-rule:evenodd;stroke:none"
               inkscape:connector-curvature="0" />
          </g>
        </g>
      </g>
    </g>
  </g>
</svg>
